<svg xmlns="http://www.w3.org/2000/svg" xmlns:xlink="http://www.w3.org/1999/xlink" version="1.1" x="0px" y="0px" viewBox="0 0 96 120" enable-background="new 0 0 96 96" xml:space="preserve">
  <g>
    <path
      d="M24.696,48C27.02,49.904,36.65,57.18,48,57.18c11.352,0,20.98-7.277,23.305-9.18C68.98,46.097,59.352,38.821,48,38.821   C36.65,38.821,27.02,46.097,24.696,48z M54.387,48c0,3.521-2.865,6.386-6.387,6.386c-3.521,0-6.386-2.864-6.386-6.386   c0-3.521,2.864-6.386,6.386-6.386C51.521,41.614,54.387,44.479,54.387,48z"
    />
    <path
      d="M45.917,48c0,1.148,0.935,2.082,2.083,2.082c1.148,0,2.082-0.934,2.082-2.082c0-1.148-0.934-2.082-2.082-2.082   C46.851,45.918,45.917,46.852,45.917,48z M48.87,48c0,0.48-0.39,0.87-0.87,0.87s-0.87-0.39-0.87-0.87s0.39-0.87,0.87-0.87   S48.87,47.52,48.87,48z"
    />
    <path
      d="M48,9.212C26.612,9.212,9.212,26.612,9.212,48c0,21.389,17.4,38.788,38.788,38.788c21.389,0,38.788-17.399,38.788-38.788   C86.788,26.612,69.389,9.212,48,9.212z M72.648,48.45c-0.45,0.405-11.182,9.938-24.648,9.938s-24.198-9.535-24.648-9.939l-0.5-0.45   l0.5-0.45c0.45-0.406,11.181-9.94,24.648-9.94s24.198,9.535,24.648,9.941L73.146,48L72.648,48.45z"
    />
  </g>
</svg>