<svg xmlns="http://www.w3.org/2000/svg" 
    xmlns:xlink="http://www.w3.org/1999/xlink" version="1.1" x="0px" y="0px" viewBox="0 0 96 120" enable-background="new 0 0 96 96" xml:space="preserve">
    <g>
        <path d="M59.05,45.415c-1.426,0-2.586,1.159-2.586,2.585c0,1.427,1.16,2.585,2.586,2.585c1.427,0,2.587-1.158,2.587-2.585   C61.637,46.575,60.477,45.415,59.05,45.415z"/>
        <path d="M64.593,48c0,2.158-0.829,4.121-2.177,5.605c4.436-2.129,7.669-4.607,8.889-5.605c-1.22-0.998-4.453-3.474-8.889-5.605   C63.764,43.879,64.593,45.842,64.593,48z"/>
        <path d="M55.122,39.729c-2.254-0.562-4.646-0.908-7.122-0.908c-11.35,0-20.98,7.276-23.304,9.178   C27.02,49.902,36.65,57.178,48,57.178c2.477,0,4.868-0.346,7.122-0.906c-4.08-0.549-7.239-4.045-7.239-8.271   C47.883,43.773,51.042,40.277,55.122,39.729z"/>
        <path d="M48,9.212C26.613,9.212,9.212,26.612,9.212,48c0,21.389,17.401,38.788,38.788,38.788c21.389,0,38.788-17.399,38.788-38.788   C86.788,26.612,69.389,9.212,48,9.212z M72.648,48.45c-0.45,0.405-11.182,9.938-24.648,9.938s-24.198-9.535-24.648-9.939l-0.5-0.45   l0.5-0.45c0.45-0.406,11.181-9.94,24.648-9.94s24.198,9.535,24.648,9.941L73.146,48L72.648,48.45z"/>
    </g>
</svg>