<svg xmlns="http://www.w3.org/2000/svg" 
    xmlns:xlink="http://www.w3.org/1999/xlink" version="1.1" x="0px" y="0px" viewBox="0 0 96 120" enable-background="new 0 0 96 96" xml:space="preserve">
    <g>
        <path style="fill:#171a21;" d="M36.951,45.415c-1.426,0-2.586,1.159-2.586,2.585c0,1.427,1.16,2.585,2.586,2.585c1.425,0,2.585-1.16,2.585-2.585   S38.376,45.415,36.951,45.415z M36.951,49.373c-0.758,0-1.373-0.615-1.373-1.373c0-0.758,0.615-1.373,1.373-1.373   s1.373,0.615,1.373,1.373C38.324,48.758,37.709,49.373,36.951,49.373z"/>
        <path style="fill:#171a21;" d="M24.695,48c1.22,0.998,4.453,3.475,8.888,5.604c-1.347-1.483-2.176-3.445-2.177-5.603c0-2.16,0.831-4.126,2.182-5.611   C29.149,44.52,25.915,47.001,24.695,48z"/>
        <path style="fill:#171a21;" d="M40.874,39.729c4.082,0.547,7.243,4.044,7.243,8.272c0,4.226-3.158,7.722-7.238,8.271c2.253,0.562,4.646,0.908,7.121,0.908   c11.352,0,20.98-7.277,23.303-9.179c-2.324-1.903-11.953-9.179-23.304-9.179C45.522,38.822,43.128,39.168,40.874,39.729z"/>
        <path style="fill:#171a21;" d="M48,9.212C26.612,9.212,9.212,26.612,9.212,48c0,21.389,17.4,38.788,38.788,38.788c21.389,0,38.788-17.399,38.788-38.788   C86.788,26.612,69.389,9.212,48,9.212z M72.648,48.45c-0.45,0.405-11.182,9.938-24.648,9.938c-13.466,0-24.198-9.535-24.648-9.939   l-0.5-0.45l0.5-0.45c0.45-0.406,11.182-9.94,24.648-9.94c13.467,0,24.198,9.535,24.648,9.94l0.5,0.45L72.648,48.45z"/>
    </g>
</svg>